solid OpenSCAD_Model
  facet normal -1 0 0
    outer loop
      vertex -3 -3.5 1
      vertex -3 0 1
      vertex -3 -3.5 0
    endloop
  endfacet
  facet normal -1 0 0
    outer loop
      vertex -3 0 0
      vertex -3 -3.5 0
      vertex -3 0 1
    endloop
  endfacet
  facet normal 0 -1 0
    outer loop
      vertex -3 -3.5 1
      vertex -3 -3.5 0
      vertex 0 -3.5 1
    endloop
  endfacet
  facet normal 0 -1 0
    outer loop
      vertex 0 -3.5 0
      vertex 0 -3.5 1
      vertex -3 -3.5 0
    endloop
  endfacet
  facet normal 0 -1 0
    outer loop
      vertex -21 0 4
      vertex -21 0 1
      vertex -16 0 4
    endloop
  endfacet
  facet normal 0 -1 0
    outer loop
      vertex -16 0 1
      vertex -16 0 4
      vertex -21 0 1
    endloop
  endfacet
  facet normal 0 1 0
    outer loop
      vertex -16 0 0
      vertex -16 0 1
      vertex -12 0 0
    endloop
  endfacet
  facet normal 0 1 0
    outer loop
      vertex -12 0 1
      vertex -12 0 0
      vertex -16 0 1
    endloop
  endfacet
  facet normal 0 1 0
    outer loop
      vertex -24.5 0 0
      vertex -24.5 0 1
      vertex -21 0 0
    endloop
  endfacet
  facet normal 0 1 0
    outer loop
      vertex -21 0 1
      vertex -21 0 0
      vertex -24.5 0 1
    endloop
  endfacet
  facet normal 0 -1 0
    outer loop
      vertex -10 0 3.5
      vertex -10 0 1.5
      vertex -7.5 0 3
    endloop
  endfacet
  facet normal 0 -1 -0
    outer loop
      vertex -7.5 0 3
      vertex -9 0 1
      vertex -7.5 0 0
    endloop
  endfacet
  facet normal 0 -1 0
    outer loop
      vertex -9 0 1
      vertex -7.5 0 3
      vertex -10 0 1.5
    endloop
  endfacet
  facet normal 0 -1 0
    outer loop
      vertex -7.5 0 3
      vertex -4.5 0 3
      vertex -10 0 3.5
    endloop
  endfacet
  facet normal 0 -1 0
    outer loop
      vertex -4.5 0 0
      vertex -3 0 1
      vertex -4.5 0 3
    endloop
  endfacet
  facet normal 0 -1 0
    outer loop
      vertex -10 0 3.5
      vertex -4.5 0 3
      vertex -2 0 3.5
    endloop
  endfacet
  facet normal 0 -1 -0
    outer loop
      vertex -2 0 3.5
      vertex -4.5 0 3
      vertex -2 0 1.5
    endloop
  endfacet
  facet normal 0 -1 0
    outer loop
      vertex -3 0 1
      vertex -2 0 1.5
      vertex -4.5 0 3
    endloop
  endfacet
  facet normal -0 -1 -0
    outer loop
      vertex 0 0 1.5
      vertex -2 0 1.5
      vertex 0 0 1
    endloop
  endfacet
  facet normal 0 -1 0
    outer loop
      vertex -3 0 1
      vertex 0 0 1
      vertex -2 0 1.5
    endloop
  endfacet
  facet normal 0 -1 0
    outer loop
      vertex -12 0 1.5
      vertex -12 0 1
      vertex -10 0 1.5
    endloop
  endfacet
  facet normal 0 -1 0
    outer loop
      vertex -9 0 1
      vertex -10 0 1.5
      vertex -12 0 1
    endloop
  endfacet
  facet normal 0 -1 0
    outer loop
      vertex -9 0 0
      vertex -7.5 0 0
      vertex -9 0 1
    endloop
  endfacet
  facet normal 0 -1 0
    outer loop
      vertex -3 0 0
      vertex -3 0 1
      vertex -4.5 0 0
    endloop
  endfacet
  facet normal 1 0 0
    outer loop
      vertex 0 9 1.5
      vertex 0 7.5 1.5
      vertex 0 9 0
    endloop
  endfacet
  facet normal 1 -0 0
    outer loop
      vertex 0 1.5 1.5
      vertex 0 9 0
      vertex 0 7.5 1.5
    endloop
  endfacet
  facet normal 1 -0 0
    outer loop
      vertex 0 0 1.5
      vertex 0 0 1
      vertex 0 1.5 1.5
    endloop
  endfacet
  facet normal 1 -0 0
    outer loop
      vertex 0 0 1
      vertex 0 9 0
      vertex 0 1.5 1.5
    endloop
  endfacet
  facet normal 1 0 0
    outer loop
      vertex 0 9 0
      vertex 0 0 1
      vertex 0 -3.5 0
    endloop
  endfacet
  facet normal 1 -0 0
    outer loop
      vertex 0 -3.5 1
      vertex 0 -3.5 0
      vertex 0 0 1
    endloop
  endfacet
  facet normal 1 0 0
    outer loop
      vertex 0 7.5 5.5
      vertex 0 1.5 5.5
      vertex 0 7.5 1.5
    endloop
  endfacet
  facet normal 1 0 0
    outer loop
      vertex 0 1.5 1.5
      vertex 0 7.5 1.5
      vertex 0 1.5 5.5
    endloop
  endfacet
  facet normal 0 0 1
    outer loop
      vertex -3 -3.5 1
      vertex 0 -3.5 1
      vertex -3 0 1
    endloop
  endfacet
  facet normal 0 0 1
    outer loop
      vertex 0 0 1
      vertex -3 0 1
      vertex 0 -3.5 1
    endloop
  endfacet
  facet normal 0 0 -1
    outer loop
      vertex -16 0 0
      vertex -21 0 0
      vertex -16 1.5 0
    endloop
  endfacet
  facet normal 0 0 -1
    outer loop
      vertex -21 1.5 0
      vertex -16 1.5 0
      vertex -21 0 0
    endloop
  endfacet
  facet normal 0 0 -1
    outer loop
      vertex -3 -3.5 0
      vertex -3 0 0
      vertex 0 -3.5 0
    endloop
  endfacet
  facet normal 0 0 -1
    outer loop
      vertex -3 0 0
      vertex -4.5 0 0
      vertex -1 1 0
    endloop
  endfacet
  facet normal 0 0 -1
    outer loop
      vertex -7.5 0 0
      vertex -1 1 0
      vertex -4.5 0 0
    endloop
  endfacet
  facet normal 0 0 -1
    outer loop
      vertex -9 0 0
      vertex -11 1 0
      vertex -7.5 0 0
    endloop
  endfacet
  facet normal 0 0 -1
    outer loop
      vertex -11 1 0
      vertex -1 1 0
      vertex -7.5 0 0
    endloop
  endfacet
  facet normal 0 0 -1
    outer loop
      vertex -3 0 0
      vertex -1 1 0
      vertex 0 -3.5 0
    endloop
  endfacet
  facet normal 0 0 -1
    outer loop
      vertex 0 -3.5 0
      vertex -1 1 0
      vertex 0 9 0
    endloop
  endfacet
  facet normal 0 0 -1
    outer loop
      vertex -11 8 0
      vertex 0 9 0
      vertex -1 8 0
    endloop
  endfacet
  facet normal 0 0 -1
    outer loop
      vertex -1 8 0
      vertex 0 9 0
      vertex -1 1 0
    endloop
  endfacet
  facet normal 0 0 -1
    outer loop
      vertex -4.5 -0.5 0
      vertex -7.5 -0.5 0
      vertex -4.5 0 0
    endloop
  endfacet
  facet normal 0 0 -1
    outer loop
      vertex -7.5 0 0
      vertex -4.5 0 0
      vertex -7.5 -0.5 0
    endloop
  endfacet
  facet normal -0 -0 -1
    outer loop
      vertex -9 0 0
      vertex -9 -3.5 0
      vertex -12 0 0
    endloop
  endfacet
  facet normal -0 -0 -1
    outer loop
      vertex -12 0 0
      vertex -9 -3.5 0
      vertex -16 0 0
    endloop
  endfacet
  facet normal 0 0 -1
    outer loop
      vertex -24.5 -3.5 0
      vertex -16 0 0
      vertex -9 -3.5 0
    endloop
  endfacet
  facet normal -0 0 -1
    outer loop
      vertex -16 0 0
      vertex -24.5 -3.5 0
      vertex -21 0 0
    endloop
  endfacet
  facet normal 0 0 -1
    outer loop
      vertex -24.5 0 0
      vertex -21 0 0
      vertex -24.5 -3.5 0
    endloop
  endfacet
  facet normal 0 0 -1
    outer loop
      vertex -12 0 0
      vertex -11 1 0
      vertex -9 0 0
    endloop
  endfacet
  facet normal -0 0 -1
    outer loop
      vertex -11 1 0
      vertex -12 0 0
      vertex -11 8 0
    endloop
  endfacet
  facet normal 0 0 -1
    outer loop
      vertex -12 0 0
      vertex -12 9 0
      vertex -11 8 0
    endloop
  endfacet
  facet normal -0 0 -1
    outer loop
      vertex 0 9 0
      vertex -11 8 0
      vertex -12 9 0
    endloop
  endfacet
  facet normal -1 0 0
    outer loop
      vertex -24.5 -3.5 1
      vertex -24.5 0 1
      vertex -24.5 -3.5 0
    endloop
  endfacet
  facet normal -1 0 0
    outer loop
      vertex -24.5 0 0
      vertex -24.5 -3.5 0
      vertex -24.5 0 1
    endloop
  endfacet
  facet normal 0 -1 0
    outer loop
      vertex -24.5 -3.5 1
      vertex -24.5 -3.5 0
      vertex -9 -3.5 1
    endloop
  endfacet
  facet normal 0 -1 0
    outer loop
      vertex -9 -3.5 0
      vertex -9 -3.5 1
      vertex -24.5 -3.5 0
    endloop
  endfacet
  facet normal 1 0 0
    outer loop
      vertex -9 0 1
      vertex -9 -3.5 1
      vertex -9 0 0
    endloop
  endfacet
  facet normal 1 0 0
    outer loop
      vertex -9 -3.5 0
      vertex -9 0 0
      vertex -9 -3.5 1
    endloop
  endfacet
  facet normal -0 0 1
    outer loop
      vertex -24.5 0 1
      vertex -24.5 -3.5 1
      vertex -21 0 1
    endloop
  endfacet
  facet normal -0 0 1
    outer loop
      vertex -21 0 1
      vertex -24.5 -3.5 1
      vertex -16 0 1
    endloop
  endfacet
  facet normal 0 0 1
    outer loop
      vertex -9 -3.5 1
      vertex -16 0 1
      vertex -24.5 -3.5 1
    endloop
  endfacet
  facet normal -0 0 1
    outer loop
      vertex -16 0 1
      vertex -9 -3.5 1
      vertex -12 0 1
    endloop
  endfacet
  facet normal 0 0 1
    outer loop
      vertex -9 0 1
      vertex -12 0 1
      vertex -9 -3.5 1
    endloop
  endfacet
  facet normal -1 0 0
    outer loop
      vertex -12 0 1.5
      vertex -12 1.5 1.5
      vertex -12 0 1
    endloop
  endfacet
  facet normal -1 0 0
    outer loop
      vertex -12 0 1
      vertex -12 1.5 1.5
      vertex -12 0 0
    endloop
  endfacet
  facet normal -1 -0 0
    outer loop
      vertex -12 7.5 1.5
      vertex -12 0 0
      vertex -12 1.5 1.5
    endloop
  endfacet
  facet normal -1 0 0
    outer loop
      vertex -12 9 0
      vertex -12 0 0
      vertex -12 7.5 1.5
    endloop
  endfacet
  facet normal -1 -0 -0
    outer loop
      vertex -12 9 1.5
      vertex -12 9 0
      vertex -12 7.5 1.5
    endloop
  endfacet
  facet normal -1 0 0
    outer loop
      vertex -12 1.5 5.5
      vertex -12 7.5 5.5
      vertex -12 1.5 1.5
    endloop
  endfacet
  facet normal -1 0 0
    outer loop
      vertex -12 7.5 1.5
      vertex -12 1.5 1.5
      vertex -12 7.5 5.5
    endloop
  endfacet
  facet normal -0 1 0
    outer loop
      vertex -11 1 1.5
      vertex -10 1 1.5
      vertex -11 1 0
    endloop
  endfacet
  facet normal 0 1 0
    outer loop
      vertex -10 1 3.5
      vertex -2 1 1.5
      vertex -10 1 1.5
    endloop
  endfacet
  facet normal -0 1 0
    outer loop
      vertex -10 1 1.5
      vertex -2 1 1.5
      vertex -11 1 0
    endloop
  endfacet
  facet normal 0 1 0
    outer loop
      vertex -11 1 0
      vertex -2 1 1.5
      vertex -1 1 0
    endloop
  endfacet
  facet normal 0 1 0
    outer loop
      vertex -1 1 1.5
      vertex -1 1 0
      vertex -2 1 1.5
    endloop
  endfacet
  facet normal 0 1 0
    outer loop
      vertex -2 1 3.5
      vertex -2 1 1.5
      vertex -10 1 3.5
    endloop
  endfacet
  facet normal 0 -0 1
    outer loop
      vertex -11 7.5 1.5
      vertex -11 8 1.5
      vertex -12 7.5 1.5
    endloop
  endfacet
  facet normal 0 0 1
    outer loop
      vertex -12 7.5 1.5
      vertex -11 8 1.5
      vertex -12 9 1.5
    endloop
  endfacet
  facet normal -0 0 1
    outer loop
      vertex -12 9 1.5
      vertex -11 8 1.5
      vertex -10 9 1.5
    endloop
  endfacet
  facet normal 0 -0 1
    outer loop
      vertex -10 8 1.5
      vertex -10 9 1.5
      vertex -11 8 1.5
    endloop
  endfacet
  facet normal 0 0 1
    outer loop
      vertex -1 8 1.5
      vertex -2 9 1.5
      vertex -2 8 1.5
    endloop
  endfacet
  facet normal 0 0 1
    outer loop
      vertex -1 7.5 1.5
      vertex 0 7.5 1.5
      vertex -1 8 1.5
    endloop
  endfacet
  facet normal -0 0 1
    outer loop
      vertex -2 9 1.5
      vertex -1 8 1.5
      vertex 0 9 1.5
    endloop
  endfacet
  facet normal 0 -0 1
    outer loop
      vertex 0 7.5 1.5
      vertex 0 9 1.5
      vertex -1 8 1.5
    endloop
  endfacet
  facet normal 0 0 1
    outer loop
      vertex -10 0 1.5
      vertex -11 1 1.5
      vertex -12 0 1.5
    endloop
  endfacet
  facet normal 0 0 1
    outer loop
      vertex -12 0 1.5
      vertex -11 1 1.5
      vertex -12 1.5 1.5
    endloop
  endfacet
  facet normal 0 0 1
    outer loop
      vertex -11 1.5 1.5
      vertex -12 1.5 1.5
      vertex -11 1 1.5
    endloop
  endfacet
  facet normal 0 0 1
    outer loop
      vertex -10 1 1.5
      vertex -11 1 1.5
      vertex -10 0 1.5
    endloop
  endfacet
  facet normal -0 0 1
    outer loop
      vertex -2 1 1.5
      vertex -2 0 1.5
      vertex -1 1 1.5
    endloop
  endfacet
  facet normal 0 0 1
    outer loop
      vertex 0 0 1.5
      vertex -1 1 1.5
      vertex -2 0 1.5
    endloop
  endfacet
  facet normal -0 0 1
    outer loop
      vertex -1 1.5 1.5
      vertex -1 1 1.5
      vertex 0 1.5 1.5
    endloop
  endfacet
  facet normal 0 -0 1
    outer loop
      vertex 0 0 1.5
      vertex 0 1.5 1.5
      vertex -1 1 1.5
    endloop
  endfacet
  facet normal -1 0 0
    outer loop
      vertex -10 0 3.5
      vertex -10 1 3.5
      vertex -10 0 1.5
    endloop
  endfacet
  facet normal -1 0 0
    outer loop
      vertex -10 1 1.5
      vertex -10 0 1.5
      vertex -10 1 3.5
    endloop
  endfacet
  facet normal 1 0 0
    outer loop
      vertex -2 1 3.5
      vertex -2 0 3.5
      vertex -2 1 1.5
    endloop
  endfacet
  facet normal 1 0 0
    outer loop
      vertex -2 0 1.5
      vertex -2 1 1.5
      vertex -2 0 3.5
    endloop
  endfacet
  facet normal 0 0 1
    outer loop
      vertex -10 0 3.5
      vertex -2 0 3.5
      vertex -10 1 3.5
    endloop
  endfacet
  facet normal 0 0 1
    outer loop
      vertex -2 1 3.5
      vertex -10 1 3.5
      vertex -2 0 3.5
    endloop
  endfacet
  facet normal -1 -0 -0
    outer loop
      vertex -7.5 -1.5 2.5
      vertex -7.5 -1.5 1.5
      vertex -7.5 -3.5 2.5
    endloop
  endfacet
  facet normal -1 0 0
    outer loop
      vertex -7.5 -3.5 2.5
      vertex -7.5 -3.5 3
      vertex -7.5 -1.5 2.5
    endloop
  endfacet
  facet normal -1 -0 0
    outer loop
      vertex -7.5 0 3
      vertex -7.5 -1.5 2.5
      vertex -7.5 -3.5 3
    endloop
  endfacet
  facet normal -1 0 0
    outer loop
      vertex -7.5 -1.5 2.5
      vertex -7.5 0 3
      vertex -7.5 -0.5 2.5
    endloop
  endfacet
  facet normal -1 0 0
    outer loop
      vertex -7.5 -0.5 0
      vertex -7.5 -0.5 2.5
      vertex -7.5 0 0
    endloop
  endfacet
  facet normal -1 0 -0
    outer loop
      vertex -7.5 0 3
      vertex -7.5 0 0
      vertex -7.5 -0.5 2.5
    endloop
  endfacet
  facet normal 0 -1 0
    outer loop
      vertex -7.5 -3.5 3
      vertex -7.5 -3.5 2.5
      vertex -4.5 -3.5 3
    endloop
  endfacet
  facet normal 0 -1 0
    outer loop
      vertex -4.5 -3.5 2.5
      vertex -4.5 -3.5 3
      vertex -7.5 -3.5 2.5
    endloop
  endfacet
  facet normal 1 0 -0
    outer loop
      vertex -4.5 -0.5 2.5
      vertex -4.5 0 3
      vertex -4.5 -1.5 2.5
    endloop
  endfacet
  facet normal 1 0 0
    outer loop
      vertex -4.5 0 3
      vertex -4.5 -0.5 2.5
      vertex -4.5 0 0
    endloop
  endfacet
  facet normal 1 0 0
    outer loop
      vertex -4.5 -0.5 0
      vertex -4.5 0 0
      vertex -4.5 -0.5 2.5
    endloop
  endfacet
  facet normal 1 -0 0
    outer loop
      vertex -4.5 -3.5 3
      vertex -4.5 -1.5 2.5
      vertex -4.5 0 3
    endloop
  endfacet
  facet normal 1 0 0
    outer loop
      vertex -4.5 -3.5 3
      vertex -4.5 -3.5 2.5
      vertex -4.5 -1.5 2.5
    endloop
  endfacet
  facet normal 1 0 -0
    outer loop
      vertex -4.5 -1.5 1.5
      vertex -4.5 -1.5 2.5
      vertex -4.5 -3.5 2.5
    endloop
  endfacet
  facet normal 0 0 1
    outer loop
      vertex -7.5 -3.5 3
      vertex -4.5 -3.5 3
      vertex -7.5 0 3
    endloop
  endfacet
  facet normal 0 0 1
    outer loop
      vertex -4.5 0 3
      vertex -7.5 0 3
      vertex -4.5 -3.5 3
    endloop
  endfacet
  facet normal 0 0 -1
    outer loop
      vertex -4.5 -1.5 2.5
      vertex -7.5 -1.5 2.5
      vertex -4.5 -0.5 2.5
    endloop
  endfacet
  facet normal 0 0 -1
    outer loop
      vertex -7.5 -0.5 2.5
      vertex -4.5 -0.5 2.5
      vertex -7.5 -1.5 2.5
    endloop
  endfacet
  facet normal -0 -0.447214 -0.894427
    outer loop
      vertex -4.5 -3.5 2.5
      vertex -7.5 -3.5 2.5
      vertex -4.5 -1.5 1.5
    endloop
  endfacet
  facet normal 0 -0.447214 -0.894427
    outer loop
      vertex -7.5 -1.5 1.5
      vertex -4.5 -1.5 1.5
      vertex -7.5 -3.5 2.5
    endloop
  endfacet
  facet normal 0 1 0
    outer loop
      vertex -7.5 -1.5 1.5
      vertex -7.5 -1.5 2.5
      vertex -4.5 -1.5 1.5
    endloop
  endfacet
  facet normal 0 1 0
    outer loop
      vertex -4.5 -1.5 2.5
      vertex -4.5 -1.5 1.5
      vertex -7.5 -1.5 2.5
    endloop
  endfacet
  facet normal 0 -1 0
    outer loop
      vertex -7.5 -0.5 2.5
      vertex -7.5 -0.5 0
      vertex -4.5 -0.5 2.5
    endloop
  endfacet
  facet normal 0 -1 0
    outer loop
      vertex -4.5 -0.5 0
      vertex -4.5 -0.5 2.5
      vertex -7.5 -0.5 0
    endloop
  endfacet
  facet normal -1 0 0
    outer loop
      vertex -1 1 1.5
      vertex -1 1.5 1.5
      vertex -1 1 0
    endloop
  endfacet
  facet normal -1 -0 0
    outer loop
      vertex -1 7.5 1.5
      vertex -1 1 0
      vertex -1 1.5 1.5
    endloop
  endfacet
  facet normal -1 0 0
    outer loop
      vertex -1 1 0
      vertex -1 7.5 1.5
      vertex -1 8 0
    endloop
  endfacet
  facet normal -1 -0 -0
    outer loop
      vertex -1 8 1.5
      vertex -1 8 0
      vertex -1 7.5 1.5
    endloop
  endfacet
  facet normal -1 0 0
    outer loop
      vertex -1 1.5 7.5
      vertex -1 7.5 7.5
      vertex -1 1.5 1.5
    endloop
  endfacet
  facet normal -1 0 0
    outer loop
      vertex -1 7.5 1.5
      vertex -1 1.5 1.5
      vertex -1 7.5 7.5
    endloop
  endfacet
  facet normal -0 1 0
    outer loop
      vertex -12 9 1.5
      vertex -10 9 1.5
      vertex -12 9 0
    endloop
  endfacet
  facet normal 0 1 0
    outer loop
      vertex -10 9 3.5
      vertex -2 9 1.5
      vertex -10 9 1.5
    endloop
  endfacet
  facet normal -0 1 0
    outer loop
      vertex -10 9 1.5
      vertex -2 9 1.5
      vertex -12 9 0
    endloop
  endfacet
  facet normal 0 1 0
    outer loop
      vertex -12 9 0
      vertex -2 9 1.5
      vertex 0 9 0
    endloop
  endfacet
  facet normal 0 1 0
    outer loop
      vertex 0 9 1.5
      vertex 0 9 0
      vertex -2 9 1.5
    endloop
  endfacet
  facet normal 0 1 0
    outer loop
      vertex -2 9 3.5
      vertex -2 9 1.5
      vertex -10 9 3.5
    endloop
  endfacet
  facet normal 0 -1 0
    outer loop
      vertex -1 1.5 1.5
      vertex 0 1.5 5.5
      vertex -1 1.5 7.5
    endloop
  endfacet
  facet normal 0 -1 0
    outer loop
      vertex 0.5 1.5 5.5
      vertex -1 1.5 7.5
      vertex 0 1.5 5.5
    endloop
  endfacet
  facet normal 0 -1 0
    outer loop
      vertex 0 1.5 1.5
      vertex 0 1.5 5.5
      vertex -1 1.5 1.5
    endloop
  endfacet
  facet normal 0 1 -0
    outer loop
      vertex 0 7.5 1.5
      vertex -1 7.5 1.5
      vertex 0 7.5 5.5
    endloop
  endfacet
  facet normal 0 1 0
    outer loop
      vertex -1 7.5 7.5
      vertex 0 7.5 5.5
      vertex -1 7.5 1.5
    endloop
  endfacet
  facet normal 0 1 0
    outer loop
      vertex 0.5 7.5 5.5
      vertex 0 7.5 5.5
      vertex -1 7.5 7.5
    endloop
  endfacet
  facet normal 0 0 -1
    outer loop
      vertex 0.5 1.5 5.5
      vertex 0 1.5 5.5
      vertex 0.5 7.5 5.5
    endloop
  endfacet
  facet normal 0 0 -1
    outer loop
      vertex 0 7.5 5.5
      vertex 0.5 7.5 5.5
      vertex 0 1.5 5.5
    endloop
  endfacet
  facet normal 0.8 0 0.6
    outer loop
      vertex -1 7.5 7.5
      vertex -1 1.5 7.5
      vertex 0.5 7.5 5.5
    endloop
  endfacet
  facet normal 0.8 -0 0.6
    outer loop
      vertex 0.5 1.5 5.5
      vertex 0.5 7.5 5.5
      vertex -1 1.5 7.5
    endloop
  endfacet
  facet normal 1 0 0
    outer loop
      vertex -11 8 1.5
      vertex -11 7.5 1.5
      vertex -11 8 0
    endloop
  endfacet
  facet normal 1 -0 0
    outer loop
      vertex -11 1.5 1.5
      vertex -11 8 0
      vertex -11 7.5 1.5
    endloop
  endfacet
  facet normal 1 0 0
    outer loop
      vertex -11 8 0
      vertex -11 1.5 1.5
      vertex -11 1 0
    endloop
  endfacet
  facet normal 1 -0 0
    outer loop
      vertex -11 1 1.5
      vertex -11 1 0
      vertex -11 1.5 1.5
    endloop
  endfacet
  facet normal 1 0 0
    outer loop
      vertex -11 7.5 7.5
      vertex -11 1.5 7.5
      vertex -11 7.5 1.5
    endloop
  endfacet
  facet normal 1 0 0
    outer loop
      vertex -11 1.5 1.5
      vertex -11 7.5 1.5
      vertex -11 1.5 7.5
    endloop
  endfacet
  facet normal 0 -1 0
    outer loop
      vertex -12.5 1.5 5.5
      vertex -12 1.5 5.5
      vertex -11 1.5 7.5
    endloop
  endfacet
  facet normal 0 -1 -0
    outer loop
      vertex -11 1.5 7.5
      vertex -12 1.5 5.5
      vertex -11 1.5 1.5
    endloop
  endfacet
  facet normal 0 -1 0
    outer loop
      vertex -12 1.5 1.5
      vertex -11 1.5 1.5
      vertex -12 1.5 5.5
    endloop
  endfacet
  facet normal 0 1 0
    outer loop
      vertex -12 7.5 5.5
      vertex -11 7.5 1.5
      vertex -12 7.5 1.5
    endloop
  endfacet
  facet normal 0 1 0
    outer loop
      vertex -12.5 7.5 5.5
      vertex -11 7.5 7.5
      vertex -12 7.5 5.5
    endloop
  endfacet
  facet normal 0 1 -0
    outer loop
      vertex -11 7.5 1.5
      vertex -12 7.5 5.5
      vertex -11 7.5 7.5
    endloop
  endfacet
  facet normal 0 0 -1
    outer loop
      vertex -12 1.5 5.5
      vertex -12.5 1.5 5.5
      vertex -12 7.5 5.5
    endloop
  endfacet
  facet normal 0 0 -1
    outer loop
      vertex -12.5 7.5 5.5
      vertex -12 7.5 5.5
      vertex -12.5 1.5 5.5
    endloop
  endfacet
  facet normal -0.8 0 0.6
    outer loop
      vertex -11 1.5 7.5
      vertex -11 7.5 7.5
      vertex -12.5 1.5 5.5
    endloop
  endfacet
  facet normal -0.8 0 0.6
    outer loop
      vertex -12.5 7.5 5.5
      vertex -12.5 1.5 5.5
      vertex -11 7.5 7.5
    endloop
  endfacet
  facet normal 0 -1 0
    outer loop
      vertex -10 8 1.5
      vertex -2 8 3.5
      vertex -10 8 3.5
    endloop
  endfacet
  facet normal 0 -1 0
    outer loop
      vertex -11 8 1.5
      vertex -11 8 0
      vertex -10 8 1.5
    endloop
  endfacet
  facet normal 0 -1 -0
    outer loop
      vertex -2 8 3.5
      vertex -10 8 1.5
      vertex -2 8 1.5
    endloop
  endfacet
  facet normal 0 -1 0
    outer loop
      vertex -11 8 0
      vertex -2 8 1.5
      vertex -10 8 1.5
    endloop
  endfacet
  facet normal -0 -1 -0
    outer loop
      vertex -1 8 1.5
      vertex -2 8 1.5
      vertex -1 8 0
    endloop
  endfacet
  facet normal 0 -1 0
    outer loop
      vertex -11 8 0
      vertex -1 8 0
      vertex -2 8 1.5
    endloop
  endfacet
  facet normal -1 0 0
    outer loop
      vertex -10 8 3.5
      vertex -10 9 3.5
      vertex -10 8 1.5
    endloop
  endfacet
  facet normal -1 0 0
    outer loop
      vertex -10 9 1.5
      vertex -10 8 1.5
      vertex -10 9 3.5
    endloop
  endfacet
  facet normal 1 0 0
    outer loop
      vertex -2 9 3.5
      vertex -2 8 3.5
      vertex -2 9 1.5
    endloop
  endfacet
  facet normal 1 0 0
    outer loop
      vertex -2 8 1.5
      vertex -2 9 1.5
      vertex -2 8 3.5
    endloop
  endfacet
  facet normal 0 0 1
    outer loop
      vertex -10 8 3.5
      vertex -2 8 3.5
      vertex -10 9 3.5
    endloop
  endfacet
  facet normal 0 0 1
    outer loop
      vertex -2 9 3.5
      vertex -10 9 3.5
      vertex -2 8 3.5
    endloop
  endfacet
  facet normal -1 0 0
    outer loop
      vertex -21 0 4
      vertex -21 1.5 4
      vertex -21 0 1
    endloop
  endfacet
  facet normal -1 0 0
    outer loop
      vertex -21 0 0
      vertex -21 0 1
      vertex -21 1.5 0
    endloop
  endfacet
  facet normal -1 0 -0
    outer loop
      vertex -21 1.5 4
      vertex -21 1.5 0
      vertex -21 0 1
    endloop
  endfacet
  facet normal 0 1 0
    outer loop
      vertex -21 1.5 0
      vertex -21 1.5 4
      vertex -16 1.5 0
    endloop
  endfacet
  facet normal 0 1 0
    outer loop
      vertex -16 1.5 4
      vertex -16 1.5 0
      vertex -21 1.5 4
    endloop
  endfacet
  facet normal 1 -0 0
    outer loop
      vertex -16 0 4
      vertex -16 0 1
      vertex -16 1.5 4
    endloop
  endfacet
  facet normal 1 0 0
    outer loop
      vertex -16 1.5 4
      vertex -16 0 1
      vertex -16 1.5 0
    endloop
  endfacet
  facet normal 1 0 0
    outer loop
      vertex -16 0 0
      vertex -16 1.5 0
      vertex -16 0 1
    endloop
  endfacet
  facet normal 0 0 1
    outer loop
      vertex -21 0 4
      vertex -16 0 4
      vertex -21 1.5 4
    endloop
  endfacet
  facet normal 0 0 1
    outer loop
      vertex -16 1.5 4
      vertex -21 1.5 4
      vertex -16 0 4
    endloop
  endfacet
endsolid OpenSCAD_Model
